%TF.GenerationSoftware,KiCad,Pcbnew,9.0.2*%
%TF.CreationDate,2025-06-17T16:19:41+02:00*%
%TF.ProjectId,TMP110-flex,544d5031-3130-42d6-966c-65782e6b6963,rev?*%
%TF.SameCoordinates,Original*%
%TF.FileFunction,Copper,L1,Top*%
%TF.FilePolarity,Positive*%
%FSLAX46Y46*%
G04 Gerber Fmt 4.6, Leading zero omitted, Abs format (unit mm)*
G04 Created by KiCad (PCBNEW 9.0.2) date 2025-06-17 16:19:41*
%MOMM*%
%LPD*%
G01*
G04 APERTURE LIST*
G04 Aperture macros list*
%AMRoundRect*
0 Rectangle with rounded corners*
0 $1 Rounding radius*
0 $2 $3 $4 $5 $6 $7 $8 $9 X,Y pos of 4 corners*
0 Add a 4 corners polygon primitive as box body*
4,1,4,$2,$3,$4,$5,$6,$7,$8,$9,$2,$3,0*
0 Add four circle primitives for the rounded corners*
1,1,$1+$1,$2,$3*
1,1,$1+$1,$4,$5*
1,1,$1+$1,$6,$7*
1,1,$1+$1,$8,$9*
0 Add four rect primitives between the rounded corners*
20,1,$1+$1,$2,$3,$4,$5,0*
20,1,$1+$1,$4,$5,$6,$7,0*
20,1,$1+$1,$6,$7,$8,$9,0*
20,1,$1+$1,$8,$9,$2,$3,0*%
%AMOutline5P*
0 Free polygon, 5 corners , with rotation*
0 The origin of the aperture is its center*
0 number of corners: always 5*
0 $1 to $10 corner X, Y*
0 $11 Rotation angle, in degrees counterclockwise*
0 create outline with 5 corners*
4,1,5,$1,$2,$3,$4,$5,$6,$7,$8,$9,$10,$1,$2,$11*%
%AMOutline6P*
0 Free polygon, 6 corners , with rotation*
0 The origin of the aperture is its center*
0 number of corners: always 6*
0 $1 to $12 corner X, Y*
0 $13 Rotation angle, in degrees counterclockwise*
0 create outline with 6 corners*
4,1,6,$1,$2,$3,$4,$5,$6,$7,$8,$9,$10,$11,$12,$1,$2,$13*%
%AMOutline7P*
0 Free polygon, 7 corners , with rotation*
0 The origin of the aperture is its center*
0 number of corners: always 7*
0 $1 to $14 corner X, Y*
0 $15 Rotation angle, in degrees counterclockwise*
0 create outline with 7 corners*
4,1,7,$1,$2,$3,$4,$5,$6,$7,$8,$9,$10,$11,$12,$13,$14,$1,$2,$15*%
%AMOutline8P*
0 Free polygon, 8 corners , with rotation*
0 The origin of the aperture is its center*
0 number of corners: always 8*
0 $1 to $16 corner X, Y*
0 $17 Rotation angle, in degrees counterclockwise*
0 create outline with 8 corners*
4,1,8,$1,$2,$3,$4,$5,$6,$7,$8,$9,$10,$11,$12,$13,$14,$15,$16,$1,$2,$17*%
%AMFreePoly0*
4,1,12,0.260000,0.029000,0.071000,-0.160000,-0.160000,-0.160000,-0.210000,-0.147000,-0.247000,-0.110000,-0.260000,-0.060000,-0.260000,0.060000,-0.247000,0.110000,-0.210000,0.147000,-0.160000,0.160000,0.260000,0.160000,0.260000,0.029000,0.260000,0.029000,$1*%
%AMFreePoly1*
4,1,12,0.260000,-0.029000,0.260000,-0.160000,-0.160000,-0.160000,-0.210000,-0.147000,-0.247000,-0.110000,-0.260000,-0.060000,-0.260000,0.060000,-0.247000,0.110000,-0.210000,0.147000,-0.160000,0.160000,0.071000,0.160000,0.260000,-0.029000,0.260000,-0.029000,$1*%
%AMFreePoly2*
4,1,12,0.210000,0.147000,0.247000,0.110000,0.260000,0.060000,0.260000,-0.060000,0.247000,-0.110000,0.210000,-0.147000,0.160000,-0.160000,-0.260000,-0.160000,-0.260000,-0.029000,-0.071000,0.160000,0.160000,0.160000,0.210000,0.147000,0.210000,0.147000,$1*%
%AMFreePoly3*
4,1,12,0.210000,0.147000,0.247000,0.110000,0.260000,0.060000,0.260000,-0.060000,0.247000,-0.110000,0.210000,-0.147000,0.160000,-0.160000,-0.071000,-0.160000,-0.260000,0.029000,-0.260000,0.160000,0.160000,0.160000,0.210000,0.147000,0.210000,0.147000,$1*%
G04 Aperture macros list end*
%TA.AperFunction,SMDPad,CuDef*%
%ADD10Outline8P,-0.150000X1.440000X-0.090000X1.500000X0.090000X1.500000X0.150000X1.440000X0.150000X-1.440000X0.090000X-1.500000X-0.090000X-1.500000X-0.150000X-1.440000X90.000000*%
%TD*%
%TA.AperFunction,SMDPad,CuDef*%
%ADD11RoundRect,0.100000X0.100000X-0.130000X0.100000X0.130000X-0.100000X0.130000X-0.100000X-0.130000X0*%
%TD*%
%TA.AperFunction,SMDPad,CuDef*%
%ADD12FreePoly0,270.000000*%
%TD*%
%TA.AperFunction,SMDPad,CuDef*%
%ADD13FreePoly1,270.000000*%
%TD*%
%TA.AperFunction,SMDPad,CuDef*%
%ADD14RoundRect,0.100000X-0.106066X0.000000X0.000000X-0.106066X0.106066X0.000000X0.000000X0.106066X0*%
%TD*%
%TA.AperFunction,SMDPad,CuDef*%
%ADD15FreePoly2,270.000000*%
%TD*%
%TA.AperFunction,SMDPad,CuDef*%
%ADD16FreePoly3,270.000000*%
%TD*%
%TA.AperFunction,ViaPad*%
%ADD17C,0.550000*%
%TD*%
%TA.AperFunction,ViaPad*%
%ADD18C,0.305000*%
%TD*%
%TA.AperFunction,Conductor*%
%ADD19C,0.300000*%
%TD*%
G04 APERTURE END LIST*
D10*
%TO.P,J101,1,Pin_1*%
%TO.N,GND*%
X50000000Y-99000000D03*
%TO.P,J101,2,Pin_2*%
%TO.N,Net-(J101-Pin_2)*%
X50000000Y-99500000D03*
%TO.P,J101,3,Pin_3*%
%TO.N,Net-(J101-Pin_3)*%
X50000000Y-100000000D03*
%TO.P,J101,4,Pin_4*%
%TO.N,Net-(J101-Pin_4)*%
X50000000Y-100500000D03*
%TO.P,J101,5,Pin_5*%
%TO.N,VDD*%
X50000000Y-101000000D03*
%TD*%
D11*
%TO.P,R101,1*%
%TO.N,VDD*%
X98800000Y-100875000D03*
%TO.P,R101,2*%
%TO.N,Net-(J101-Pin_4)*%
X98800000Y-100235000D03*
%TD*%
%TO.P,R102,1*%
%TO.N,VDD*%
X97900000Y-100875000D03*
%TO.P,R102,2*%
%TO.N,Net-(J101-Pin_3)*%
X97900000Y-100235000D03*
%TD*%
D12*
%TO.P,U101,1,GND*%
%TO.N,GND*%
X100240000Y-99610000D03*
D13*
%TO.P,U101,2,SCL*%
%TO.N,Net-(J101-Pin_3)*%
X99760000Y-99610000D03*
D14*
%TO.P,U101,3,ADD0*%
%TO.N,Net-(JP101-C)*%
X100000000Y-100000000D03*
D15*
%TO.P,U101,4,SDA*%
%TO.N,Net-(J101-Pin_4)*%
X99760000Y-100390000D03*
D16*
%TO.P,U101,5,V+*%
%TO.N,VDD*%
X100240000Y-100390000D03*
%TD*%
D11*
%TO.P,C101,1*%
%TO.N,VDD*%
X101300000Y-100320000D03*
%TO.P,C101,2*%
%TO.N,GND*%
X101300000Y-99680000D03*
%TD*%
D17*
%TO.N,GND*%
X91500000Y-99500000D03*
X101000000Y-101000000D03*
X83500000Y-99500000D03*
X89500000Y-99500000D03*
X74500000Y-99500000D03*
X70500000Y-99500000D03*
X88500000Y-99500000D03*
X87500000Y-99500000D03*
X101000000Y-99000000D03*
X72500000Y-99500000D03*
X76500000Y-99500000D03*
X93500000Y-99500000D03*
X69500000Y-99500000D03*
X81500000Y-99500000D03*
X95500000Y-99500000D03*
X75500000Y-99500000D03*
X96500000Y-99500000D03*
X79500000Y-99500000D03*
X77500000Y-99500000D03*
X71500000Y-99500000D03*
X73500000Y-99500000D03*
X82500000Y-99500000D03*
X78500000Y-99500000D03*
X92500000Y-99500000D03*
X80500000Y-99500000D03*
X94500000Y-99500000D03*
X68500000Y-99500000D03*
X90500000Y-99500000D03*
X97500000Y-99500000D03*
X85500000Y-99500000D03*
X86500000Y-99500000D03*
X67500000Y-99500000D03*
X84500000Y-99500000D03*
%TO.N,Net-(J101-Pin_3)*%
X60300000Y-100000000D03*
X65898683Y-100024199D03*
%TO.N,Net-(J101-Pin_2)*%
X65101318Y-99475800D03*
D18*
%TO.N,Net-(JP101-C)*%
X100000000Y-100000000D03*
D17*
X63000000Y-100000000D03*
X66200000Y-99500000D03*
%TO.N,Net-(J101-Pin_4)*%
X99200000Y-100390000D03*
X97200000Y-100500000D03*
%TD*%
D19*
%TO.N,GND*%
X88400000Y-99000000D02*
X99895000Y-99000000D01*
X100240000Y-99345000D02*
X100240000Y-99610000D01*
X101230000Y-99610000D02*
X101300000Y-99680000D01*
X100240000Y-99610000D02*
X101230000Y-99610000D01*
X99895000Y-99000000D02*
X100240000Y-99345000D01*
X50000000Y-99000000D02*
X88400000Y-99000000D01*
%TO.N,VDD*%
X100240000Y-100655000D02*
X100240000Y-100390000D01*
X101230000Y-100390000D02*
X101300000Y-100320000D01*
X100240000Y-100390000D02*
X101230000Y-100390000D01*
X50000000Y-101000000D02*
X99895000Y-101000000D01*
X99895000Y-101000000D02*
X100240000Y-100655000D01*
%TO.N,Net-(J101-Pin_3)*%
X97200000Y-100000000D02*
X97665000Y-100000000D01*
X97665000Y-100000000D02*
X97900000Y-100235000D01*
X99760000Y-99610000D02*
X98525000Y-99610000D01*
X98525000Y-99610000D02*
X97900000Y-100235000D01*
X97199821Y-99999821D02*
X97200000Y-100000000D01*
X65923061Y-99999821D02*
X97199821Y-99999821D01*
X65898683Y-100024199D02*
X65923061Y-99999821D01*
X50000000Y-100000000D02*
X60300000Y-100000000D01*
%TO.N,Net-(J101-Pin_2)*%
X65101318Y-99475800D02*
X65077117Y-99500001D01*
X65077117Y-99500001D02*
X50000000Y-99500001D01*
%TO.N,Net-(JP101-C)*%
X66200000Y-99500000D02*
X65750000Y-99500000D01*
X65250000Y-100000000D02*
X63000000Y-100000000D01*
X65750000Y-99500000D02*
X65250000Y-100000000D01*
%TO.N,Net-(J101-Pin_4)*%
X99200000Y-100390000D02*
X98955000Y-100390000D01*
X98955000Y-100390000D02*
X98800000Y-100235000D01*
X99760000Y-100390000D02*
X99200000Y-100390000D01*
X50000000Y-100499999D02*
X97200000Y-100500000D01*
%TD*%
%TA.AperFunction,Conductor*%
%TO.N,GND*%
G36*
X101785148Y-98714852D02*
G01*
X101799500Y-98749500D01*
X101799500Y-101250500D01*
X101785148Y-101285148D01*
X101750500Y-101299500D01*
X100209478Y-101299500D01*
X100174830Y-101285148D01*
X100160478Y-101250500D01*
X100174830Y-101215852D01*
X100520469Y-100870213D01*
X100520470Y-100870212D01*
X100566614Y-100790288D01*
X100569245Y-100780468D01*
X100570225Y-100776810D01*
X100593059Y-100747061D01*
X100617553Y-100740500D01*
X101103626Y-100740500D01*
X101123419Y-100744676D01*
X101130004Y-100747583D01*
X101130006Y-100747584D01*
X101130009Y-100747585D01*
X101155135Y-100750500D01*
X101444864Y-100750499D01*
X101469991Y-100747585D01*
X101572765Y-100702206D01*
X101652206Y-100622765D01*
X101697585Y-100519991D01*
X101700500Y-100494865D01*
X101700499Y-100145136D01*
X101697585Y-100120009D01*
X101652206Y-100017235D01*
X101652205Y-100017234D01*
X101652205Y-100017233D01*
X101572766Y-99937794D01*
X101572767Y-99937794D01*
X101469993Y-99892415D01*
X101457428Y-99890957D01*
X101444865Y-99889500D01*
X101444863Y-99889500D01*
X101155141Y-99889500D01*
X101155131Y-99889501D01*
X101130007Y-99892415D01*
X101027233Y-99937794D01*
X100947793Y-100017234D01*
X100947136Y-100018194D01*
X100946269Y-100018758D01*
X100944583Y-100020445D01*
X100944227Y-100020089D01*
X100915714Y-100038666D01*
X100906713Y-100039500D01*
X100622209Y-100039500D01*
X100587561Y-100025148D01*
X100573209Y-99990500D01*
X100582479Y-99964006D01*
X100582303Y-99963921D01*
X100583059Y-99962350D01*
X100583900Y-99959948D01*
X100584698Y-99958947D01*
X100584700Y-99958942D01*
X100604999Y-99870004D01*
X100605000Y-99870002D01*
X100605000Y-99449998D01*
X100604999Y-99449996D01*
X100598404Y-99398413D01*
X100585404Y-99348412D01*
X100580497Y-99332297D01*
X100580494Y-99332291D01*
X100531960Y-99255047D01*
X100531953Y-99255039D01*
X100494961Y-99218047D01*
X100482561Y-99206626D01*
X100401582Y-99164595D01*
X100351584Y-99151595D01*
X100300003Y-99145000D01*
X100179996Y-99145000D01*
X100128413Y-99151595D01*
X100078412Y-99164595D01*
X100062295Y-99169503D01*
X100062293Y-99169504D01*
X100027143Y-99191589D01*
X99990170Y-99197870D01*
X99978501Y-99193589D01*
X99973719Y-99191107D01*
X99921711Y-99164112D01*
X99921709Y-99164111D01*
X99871709Y-99151111D01*
X99820005Y-99144500D01*
X99820000Y-99144500D01*
X99700000Y-99144500D01*
X99699994Y-99144500D01*
X99648288Y-99151111D01*
X99598293Y-99164110D01*
X99582130Y-99169031D01*
X99582124Y-99169034D01*
X99504692Y-99217688D01*
X99504688Y-99217691D01*
X99477232Y-99245148D01*
X99442584Y-99259500D01*
X98478853Y-99259500D01*
X98389713Y-99283385D01*
X98389710Y-99283386D01*
X98309786Y-99329531D01*
X97931888Y-99707429D01*
X97897240Y-99721781D01*
X97872740Y-99715216D01*
X97800291Y-99673387D01*
X97800288Y-99673386D01*
X97791592Y-99671056D01*
X97764776Y-99663870D01*
X97711146Y-99649500D01*
X97711144Y-99649500D01*
X97250537Y-99649500D01*
X97247805Y-99649321D01*
X97245965Y-99649321D01*
X66716122Y-99649321D01*
X66681474Y-99634969D01*
X66667122Y-99600321D01*
X66668792Y-99587639D01*
X66675499Y-99562604D01*
X66675500Y-99562604D01*
X66675500Y-99437397D01*
X66662538Y-99389025D01*
X66643095Y-99316464D01*
X66580495Y-99208036D01*
X66491964Y-99119505D01*
X66383536Y-99056905D01*
X66369241Y-99053074D01*
X66262603Y-99024500D01*
X66262601Y-99024500D01*
X66137399Y-99024500D01*
X66137397Y-99024500D01*
X66016467Y-99056904D01*
X66016466Y-99056904D01*
X66016464Y-99056905D01*
X65908036Y-99119505D01*
X65908033Y-99119507D01*
X65892393Y-99135148D01*
X65857745Y-99149500D01*
X65703853Y-99149500D01*
X65614713Y-99173385D01*
X65614711Y-99173385D01*
X65552946Y-99209045D01*
X65515764Y-99213939D01*
X65486011Y-99191108D01*
X65486011Y-99191107D01*
X65481817Y-99183842D01*
X65481814Y-99183839D01*
X65481813Y-99183836D01*
X65393282Y-99095305D01*
X65284854Y-99032705D01*
X65254233Y-99024500D01*
X65163921Y-99000300D01*
X65163919Y-99000300D01*
X65038717Y-99000300D01*
X65038715Y-99000300D01*
X64917785Y-99032704D01*
X64917784Y-99032704D01*
X64917782Y-99032705D01*
X64809354Y-99095305D01*
X64809351Y-99095307D01*
X64769510Y-99135149D01*
X64734862Y-99149501D01*
X51532799Y-99149501D01*
X51532795Y-99149500D01*
X51523050Y-99149500D01*
X48549500Y-99149500D01*
X48514852Y-99135148D01*
X48500500Y-99100500D01*
X48500500Y-98803346D01*
X48514852Y-98768698D01*
X48568698Y-98714852D01*
X48603346Y-98700500D01*
X54960118Y-98700500D01*
X101750500Y-98700500D01*
X101785148Y-98714852D01*
G37*
%TD.AperFunction*%
%TD*%
M02*
