M48
; DRILL file {KiCad 9.0.2} date 2025-06-17T16:19:40+0200
; FORMAT={-:-/ absolute / metric / decimal}
; #@! TF.CreationDate,2025-06-17T16:19:40+02:00
; #@! TF.GenerationSoftware,Kicad,Pcbnew,9.0.2
; #@! TF.FileFunction,Plated,1,2,PTH
FMAT,2
METRIC
; #@! TA.AperFunction,Plated,PTH,ViaDrill
T1C0.102
; #@! TA.AperFunction,Plated,PTH,ViaDrill
T2C0.300
%
G90
G05
T1
X100.0Y-100.0
T2
X60.3Y-100.0
X63.0Y-100.0
X65.101Y-99.476
X65.899Y-100.024
X66.2Y-99.5
X67.5Y-99.5
X68.5Y-99.5
X69.5Y-99.5
X70.5Y-99.5
X71.5Y-99.5
X72.5Y-99.5
X73.5Y-99.5
X74.5Y-99.5
X75.5Y-99.5
X76.5Y-99.5
X77.5Y-99.5
X78.5Y-99.5
X79.5Y-99.5
X80.5Y-99.5
X81.5Y-99.5
X82.5Y-99.5
X83.5Y-99.5
X84.5Y-99.5
X85.5Y-99.5
X86.5Y-99.5
X87.5Y-99.5
X88.5Y-99.5
X89.5Y-99.5
X90.5Y-99.5
X91.5Y-99.5
X92.5Y-99.5
X93.5Y-99.5
X94.5Y-99.5
X95.5Y-99.5
X96.5Y-99.5
X97.2Y-100.5
X97.5Y-99.5
X99.2Y-100.39
X101.0Y-99.0
X101.0Y-101.0
M30
